<mxfile host="65bd71144e">
    <diagram id="SsnXykl4FiQ4Bt3GO4PC" name="Page-1">
        <mxGraphModel dx="1306" dy="2217" grid="1" gridSize="10" guides="1" tooltips="1" connect="1" arrows="1" fold="1" page="0" pageScale="1" pageWidth="850" pageHeight="1100" math="0" shadow="0">
            <root>
                <mxCell id="0"/>
                <mxCell id="1" parent="0"/>
                <mxCell id="12" style="edgeStyle=orthogonalEdgeStyle;html=1;entryX=0.425;entryY=-0.033;entryDx=0;entryDy=0;entryPerimeter=0;" parent="1" source="11" edge="1" target="14">
                    <mxGeometry relative="1" as="geometry">
                        <mxPoint x="920" y="-1460" as="targetPoint"/>
                        <Array as="points">
                            <mxPoint x="920" y="-1570"/>
                        </Array>
                    </mxGeometry>
                </mxCell>
                <mxCell id="13" style="edgeStyle=orthogonalEdgeStyle;html=1;exitX=0;exitY=0.5;exitDx=0;exitDy=0;" parent="1" source="11" edge="1">
                    <mxGeometry relative="1" as="geometry">
                        <mxPoint x="280" y="-1450" as="targetPoint"/>
                        <Array as="points">
                            <mxPoint x="280" y="-1570"/>
                            <mxPoint x="280" y="-1460"/>
                        </Array>
                    </mxGeometry>
                </mxCell>
                <mxCell id="17" style="edgeStyle=none;html=1;" edge="1" parent="1" source="11" target="21">
                    <mxGeometry relative="1" as="geometry">
                        <mxPoint x="600" y="-1470" as="targetPoint"/>
                        <Array as="points">
                            <mxPoint x="600" y="-1470"/>
                            <mxPoint x="600" y="-1460"/>
                        </Array>
                    </mxGeometry>
                </mxCell>
                <mxCell id="11" value="users" style="rounded=1;whiteSpace=wrap;html=1;" parent="1" vertex="1">
                    <mxGeometry x="490" y="-1600" width="220" height="60" as="geometry"/>
                </mxCell>
                <mxCell id="14" value="tutor" style="rounded=1;whiteSpace=wrap;html=1;" parent="1" vertex="1">
                    <mxGeometry x="870" y="-1440" width="120" height="60" as="geometry"/>
                </mxCell>
                <mxCell id="25" style="edgeStyle=none;html=1;exitX=0.5;exitY=1;exitDx=0;exitDy=0;entryX=0.5;entryY=0;entryDx=0;entryDy=0;" edge="1" parent="1" source="16" target="24">
                    <mxGeometry relative="1" as="geometry"/>
                </mxCell>
                <mxCell id="16" value="student" style="rounded=1;whiteSpace=wrap;html=1;" parent="1" vertex="1">
                    <mxGeometry x="220" y="-1450" width="120" height="60" as="geometry"/>
                </mxCell>
                <mxCell id="28" style="edgeStyle=none;html=1;exitX=0.5;exitY=1;exitDx=0;exitDy=0;" edge="1" parent="1" source="21">
                    <mxGeometry relative="1" as="geometry">
                        <mxPoint x="600" y="-1370" as="targetPoint"/>
                    </mxGeometry>
                </mxCell>
                <mxCell id="21" value="admin" style="rounded=1;whiteSpace=wrap;html=1;" vertex="1" parent="1">
                    <mxGeometry x="540" y="-1450" width="120" height="60" as="geometry"/>
                </mxCell>
                <mxCell id="24" value="&lt;font style=&quot;&quot;&gt;&lt;font style=&quot;&quot;&gt;&lt;span style=&quot;font-size: 18px;&quot;&gt;id: String,&lt;/span&gt;&lt;br&gt;&lt;br&gt;&lt;span style=&quot;font-size: 18px;&quot;&gt;name: String,&lt;/span&gt;&lt;br&gt;&lt;br&gt;&lt;span style=&quot;font-size: 18px;&quot;&gt;phone: Number,&lt;/span&gt;&lt;br&gt;&lt;br&gt;&lt;span style=&quot;font-size: 18px;&quot;&gt;email: String,&lt;/span&gt;&lt;br&gt;&lt;br&gt;&lt;span style=&quot;font-size: 18px;&quot;&gt;gradeLevel: String&lt;/span&gt;&lt;span style=&quot;font-size: 18px;&quot;&gt;,&lt;/span&gt;&lt;br&gt;&lt;br&gt;&lt;span style=&quot;font-size: 18px;&quot;&gt;userName: String,&lt;br&gt;&lt;/span&gt;&lt;br&gt;&lt;span style=&quot;font-size: 18px;&quot;&gt;tutorsPending: Array,&lt;br&gt;&lt;br&gt;&lt;/span&gt;&lt;span style=&quot;font-size: 18px;&quot;&gt;tutorsPending: Array,&lt;/span&gt;&lt;br style=&quot;font-size: 18px;&quot;&gt;&lt;br&gt;&lt;/font&gt;&lt;/font&gt;" style="whiteSpace=wrap;html=1;aspect=fixed;" vertex="1" parent="1">
                    <mxGeometry x="-150" y="-1330" width="390" height="390" as="geometry"/>
                </mxCell>
                <mxCell id="26" value="1 - remove student &amp;amp; tutor&lt;br&gt;&lt;br&gt;2 - edit information website&lt;br&gt;&lt;br&gt;3 - change price subscrip&lt;br&gt;&lt;br&gt;4 -&amp;nbsp; controller dashboard" style="whiteSpace=wrap;html=1;aspect=fixed;" vertex="1" parent="1">
                    <mxGeometry x="500" y="-1365" width="200" height="200" as="geometry"/>
                </mxCell>
                <mxCell id="29" value="1 -&amp;nbsp; controller meeting&lt;br&gt;&lt;br&gt;2 -&amp;nbsp;pay the subscription&lt;br&gt;&lt;br&gt;3 -&amp;nbsp;add courses to it&lt;br&gt;&lt;br&gt;5 -&amp;nbsp;" style="whiteSpace=wrap;html=1;aspect=fixed;" vertex="1" parent="1">
                    <mxGeometry x="847.5" y="-1347.5" width="165" height="165" as="geometry"/>
                </mxCell>
            </root>
        </mxGraphModel>
    </diagram>
</mxfile>